<svg height='300px' width='300px'  fill="#8a9b91" xmlns="http://www.w3.org/2000/svg" viewBox="0 0 5 5" x="0px" y="0px"><title>tropical</title><g data-name="Layer 2"><path d="M2.74635.58282,2.75281.56276A.06151.06151,0,0,0,2.74635.58282Z"></path><path d="M2.92938,3.26749c.18888-.11029.66154-.34976.66154-.34976a8.1133,8.1133,0,0,1-1.09068.26536,2.72959,2.72959,0,0,0-.71171.19156l.2148-.27241a4.08132,4.08132,0,0,1,.43623-.01619,2.49844,2.49844,0,0,0,.7952-.12175c.20652-.0968.63288-.29879.70024-.33071A12.90555,12.90555,0,0,1,2.544,2.88343a1.30965,1.30965,0,0,0-.51444.18549L2.219,2.8287a2.93412,2.93412,0,0,1,.3121-.02756,3.76794,3.76794,0,0,0,.96126-.15476,4.43417,4.43417,0,0,0,.56694-.3067,3.52984,3.52984,0,0,1-.8101.1591,3.50427,3.50427,0,0,0,.58336-.22312,3.501,3.501,0,0,1,.39068-.1383,5.63332,5.63332,0,0,0-.66426.13208c-.3081.08551-.4985.07487-.7.12706a2.70828,2.70828,0,0,0-.40412.13307l.17771-.22537a2.92408,2.92408,0,0,0,1.18555-.23177c.15892-.0928.368-.21274.43034-.24846a6.93041,6.93041,0,0,1-1.02464.26964,2.07836,2.07836,0,0,0-.56368.17564L2.80625,2.084c.07884-.01746.23358-.0215.44072-.04346a1.61293,1.61293,0,0,0,.73361-.29135,1.93213,1.93213,0,0,1,.37776-.22059c-.05917-.031-.29451.08174-.56969.17895.25367-.11806.531-.2841.531-.2841a2.5583,2.5583,0,0,1-.66254.16723,1.86744,1.86744,0,0,0-.64588.23337l.14132-.17922a2.91,2.91,0,0,0,.61088-.14341,1.706,1.706,0,0,0,.554-.389s-.27207.081-.4687.14311c.01214-.00758.02383-.01529.03476-.02315A2.91009,2.91009,0,0,0,4.32217.80612c-.01042.01537-.33492.16284-.54928.31343-.13991.09829-.31314.18865-.4165.26675L3.45358,1.263A1.48683,1.48683,0,0,0,3.8792.95394a2.99177,2.99177,0,0,0,.328-.53811C4.198.43186,4.05884.54877,3.906.72059c-.13112.14741-.33548.36471-.42593.48424.07889-.12689.2067-.39295.29634-.56677C3.88089.43544,3.93823.26644,3.94994.252A3.03243,3.03243,0,0,0,3.5638.75308a1.38942,1.38942,0,0,0-.129.49819l-.12.14773c.0506-.11639.08639-.32734.14381-.50376C3.53871.649,3.58192.30092,3.59363.28646a2.58819,2.58819,0,0,0-.21474.387c.01392-.157.02556-.30094.02556-.30094a1.706,1.706,0,0,0-.2657.62262c-.01125.05928-.01875.11673-.02357.17141l-.00062-.02566a2.63669,2.63669,0,0,1,.065-.68728,4.28739,4.28739,0,0,0-.26237.88867,2.87087,2.87087,0,0,0,.03643.50127l-.17518.21566A1.79389,1.79389,0,0,0,2.90575,1.381C2.9006.96981,3.0492.4917,2.98883.41884a1.93213,1.93213,0,0,1-.13749.41528,1.61293,1.61293,0,0,0-.13295.77807,4.50984,4.50984,0,0,1,.04782.46208L2.63973,2.23A2.07685,2.07685,0,0,0,2.695,1.6411,6.93046,6.93046,0,0,1,2.74635.58282c-.022.06839-.096.29779-.15385.4725a2.9245,2.9245,0,0,0,.0193,1.209l-.218.26836a2.44726,2.44726,0,0,0,.05676-.4672c.00929-.20794-.04058-.392-.0208-.71113A5.63332,5.63332,0,0,0,2.42128.67717,3.501,3.501,0,0,1,2.367,1.088a3.65591,3.65591,0,0,0-.108.8701,1.04981,1.04981,0,0,0,.11863.59454L2.183,2.79223a2.88408,2.88408,0,0,0,.04083-.79073,8.1133,8.1133,0,0,1,.03351-1.122s-.13628.512-.205.71967a1.10592,1.10592,0,0,0-.04876.27009,6.48936,6.48936,0,0,1-.008-.80719c-.01726.07251-.1265.53148-.17838.75358a1.03284,1.03284,0,0,0-.01977.25218,2.57305,2.57305,0,0,1,.00321-.6247,4.43417,4.43417,0,0,0-.18252.61821,3.76788,3.76788,0,0,0,.04786.97246c.0266.154.04141.27547.048.33581L1.52679,3.6a2.64475,2.64475,0,0,0,.07014-.38281c.021-.22239-.116-.71645-.13165-1.01642a2.059,2.059,0,0,1,.02938-.50289,1.44213,1.44213,0,0,0-.221.7847c-.05024-.2941-.10987-.62192-.10987-.62192a6.12872,6.12872,0,0,0-.08156,1.08306A4.55894,4.55894,0,0,0,1.2969,3.883L.6513,4.6778l-.00039.00049a.04306.04306,0,1,0,.06763.05333l.63929-.81074a6.25,6.25,0,0,0,.8545.0105A1.50105,1.50105,0,0,0,3.206,3.51557a2.059,2.059,0,0,1-.48588.133,4.387,4.387,0,0,1-.494.032c.09257-.00445.18424-.01183.26814-.02347a6.12862,6.12862,0,0,0,1.04263-.3043s-.62051.01791-.92573.0349A1.1782,1.1782,0,0,0,2.92938,3.26749Zm-.38-.34308c.19679-.02573.67287-.09829,1.0204-.16372-.1271.06008-.26095.12323-.35259.16618a2.23755,2.23755,0,0,1-.72144.1151l-.05841.0028c-.04886.00259-.10812.00259-.16543.00258-.04457,0-.085.00016-.12151.001A1.25659,1.25659,0,0,1,2.54941,2.92441ZM2.781,2.26047a2.14452,2.14452,0,0,1,.44971-.1261c.19654-.033.45452-.09653.6662-.15556l-.09958.05792a2.8128,2.8128,0,0,1-1.0176.22426ZM3.81323.88507C3.85786.83594,3.9.78952,3.93688.74807c.03864-.04344.07632-.08325.11123-.11879a1.99778,1.99778,0,0,1-.2002.29766,1.19156,1.19156,0,0,1-.26395.21543C3.64944,1.06543,3.73437.97192,3.81323.88507Zm-1.02606.95136c-.0088-.06683-.01878-.14258-.02768-.22849A1.57929,1.57929,0,0,1,2.88841.8524c.01408-.02857.02708-.05792.039-.08719L2.92694.768a3.69611,3.69611,0,0,0-.06252.6135,1.75731,1.75731,0,0,1-.07058.50587Zm-.15544-.76812.036-.10943c-.01388.21931-.02255.48489-.01409.684a2.14458,2.14458,0,0,1-.03014.46608l-.00025.00136A2.81283,2.81283,0,0,1,2.63174,1.06831Zm-.33145.8904a3.65579,3.65579,0,0,1,.095-.81123c-.00056.06746-.00255.13692-.00673.20435a2.89952,2.89952,0,0,0,.01022.44887,2.04109,2.04109,0,0,1,.01054.263,2.8544,2.8544,0,0,1-.03916.38418A1.33356,1.33356,0,0,1,2.30029,1.95871ZM1.91462,3.36765a3.15252,3.15252,0,0,1,.592-.14371,7.05063,7.05063,0,0,0,.68987-.149c-.10947.05762-.21823.11613-.28795.15684a1.38353,1.38353,0,0,1-.6657.15536c-.10951-.003-.245-.00749-.3507-.0111Zm.32708.06083.01957.00018a2.88914,2.88914,0,0,0-.65684.17947l.15405-.19537C1.84911,3.416,2.07445,3.42385,2.2417,3.42848ZM3.47691,2.608a2.20981,2.20981,0,0,1-.475.10741c-.19.02674-.36862.04046-.47238.04438-.09258.0035-.17109.01022-.232.017a.995.995,0,0,1,.36059-.17071,1.58669,1.58669,0,0,0,.294-.03353c.27126-.0257.5892-.06708.82209-.11181A2.83455,2.83455,0,0,1,3.47691,2.608ZM2.86938,2.4365a2.04109,2.04109,0,0,1,.25945-.0442,2.89952,2.89952,0,0,0,.44124-.083c.0651-.01807.13263-.03442.19851-.04895a3.65574,3.65574,0,0,1-.77393.26105l-.049.01041c-.05762.00542-.114.01023-.168.01425a.84949.84949,0,0,0-.12342.01857.90758.90758,0,0,1-.15263-.01011A2.85385,2.85385,0,0,1,2.86938,2.4365Zm-.33481.16377a1.06368,1.06368,0,0,0-.23134.12164l.11481-.1456A.59279.59279,0,0,0,2.53457,2.60028Zm1.49766-.9398C4.00607,1.6782,3.98,1.697,3.955,1.71669a1.57929,1.57929,0,0,1-.71241.28272c-.08589.00911-.16206.015-.22927.02029l-.0512.004a1.75753,1.75753,0,0,1,.48025-.17391,3.69611,3.69611,0,0,0,.58722-.18834Zm-.3706-.02874a2.50948,2.50948,0,0,0,.28685-.04934,2.13312,2.13312,0,0,1-.4666.19494,2.47283,2.47283,0,0,1-.363.03588A1.69389,1.69389,0,0,1,3.66163,1.63174Zm-.37084.21277a1.81651,1.81651,0,0,0-.45918.20731L2.986,1.856C3.03814,1.85669,3.15693,1.85639,3.29079,1.84451Zm.45669-.38125a1.696,1.696,0,0,1-.42274.11055,2.59523,2.59523,0,0,1,.44881-.2508c.10545-.03446.26778-.08416.38981-.12111A1.62193,1.62193,0,0,1,3.74748,1.46326Zm-.16789-.17181c.07289-.04412.14826-.08973.21706-.13807A3.3072,3.3072,0,0,1,4.13241.95444a2.60181,2.60181,0,0,1-.273.24435,1.31333,1.31333,0,0,1-.304.14576.04139.04139,0,0,0,.00058-.03878Zm-.09391.05746.00744.00783.00992.006c-.02682.009-.05274.01728-.077.02472C3.44465,1.37491,3.46468,1.362,3.48568,1.34891Zm.04709.04742c-.141.08187-.29341.1836-.37045.23609l.12937-.16407C3.33184,1.45811,3.42607,1.43291,3.53277,1.39632ZM3.60024.77258A2.01471,2.01471,0,0,1,3.809.47579c-.02014.04437-.04322.09275-.0693.14333-.02521.0489-.0531.1044-.08263.16316-.05345.10638-.11112.22115-.1598.31019A1.1262,1.1262,0,0,1,3.60024.77258Zm-.45142.83068c.023-.05871.07062-.18319.11429-.31328.00044.07678.00364.13815.00537.166ZM3.50923.50648a3.18282,3.18282,0,0,1-.09.376c-.02574.07909-.04682.16346-.0672.245-.01588.06356-.03133.12542-.04743.17782-.0005-.04654,0-.09963.00252-.15449A1.25056,1.25056,0,0,0,3.35226.95274c.00458-.04265.00961-.09382.01468-.14785A2.92654,2.92654,0,0,1,3.50923.50648ZM3.34881.54209c-.00654.07663-.01458.16849-.02254.25355L3.315.82679a1.24115,1.24115,0,0,0-.049.31757c-.03259.11012-.07627.23305-.11112.32678a1.8046,1.8046,0,0,1,.02445-.46824A1.62343,1.62343,0,0,1,3.34881.54209Zm-.39035.80164A2.17658,2.17658,0,0,1,3.07862.85139a2.58662,2.58662,0,0,0-.00537.29123,1.74044,1.74044,0,0,1-.09608.56779A2.55016,2.55016,0,0,1,2.95847,1.34373Zm.14963-.03092a1.71014,1.71014,0,0,0,.024.31106l-.14075.17327A2.16828,2.16828,0,0,0,3.1081,1.31282Zm-.9228-.01487a7.05063,7.05063,0,0,0-.00274.70577,3.53515,3.53515,0,0,1-.01519.63762c-.0285-.105-.06416-.2393-.08981-.34574a1.38352,1.38352,0,0,1,.014-.68344C2.11692,1.53551,2.15162,1.417,2.1853,1.29795ZM2.03737,2.30528c.0435.18052.11472.43737.13292.50259l-.19194.23629a1.625,1.625,0,0,0,.06115-.56958c-.005-.06337-.01061-.14528-.01626-.23774C2.02745,2.26038,2.03209,2.28336,2.03737,2.30528Zm-.09044-.85962c.008.35354.03574.83433.05136,1.03217a1.552,1.552,0,0,1-.02714.42186q-.00972-.0403-.02186-.08732c-.018-.07027-.03657-.14293-.04552-.2l-.00937-.05772A2.23753,2.23753,0,0,1,1.85744,1.825C1.88046,1.72649,1.9145,1.58246,1.94693,1.44566ZM1.7067,3.02674c-.01767-.10232-.04127-.27986-.0545-.47132a2.20986,2.20986,0,0,1,.00662-.48691,2.83455,2.83455,0,0,1,.08238-.32146,9.86785,9.86785,0,0,0,.08228.99822,1.02246,1.02246,0,0,1-.08.52367C1.73508,3.20475,1.72309,3.12162,1.7067,3.02674Zm.15774-.287c-.01779-.13144-.034-.2775-.04726-.42315.0151.1226.03488.233.04575.30222.02117.13484.09107.34125.09652.44863l-.17861.21987A1.06054,1.06054,0,0,0,1.86444,2.73973ZM1.424,2.203a4.229,4.229,0,0,0,.06834.4764,2.54186,2.54186,0,0,1,.06344.534,2.42131,2.42131,0,0,1-.05079.30078,5.84518,5.84518,0,0,1-.17006-.76271A1.46174,1.46174,0,0,1,1.425,1.92812,2.4415,2.4415,0,0,0,1.424,2.203Zm-.3006.73787a4.805,4.805,0,0,1,.04536-.81812c.04068.2289.09728.55345.12084.71695a3.82578,3.82578,0,0,1,.02046.94936A4.25068,4.25068,0,0,1,1.1234,2.94084Zm.23631.17365c.05079.22267.11314.43977.13739.52209l-.153.18835A2.81551,2.81551,0,0,0,1.35971,3.11449Zm1.36685.57489a2.44138,2.44138,0,0,0,.26867-.05792,1.46174,1.46174,0,0,1-.78674.25875,5.75943,5.75943,0,0,1-.76508-.00511,1.549,1.549,0,0,1,.2674-.11519,2.54186,2.54186,0,0,1,.53552-.04863A4.22923,4.22923,0,0,0,2.72656,3.68938Zm-1.02808.04108a1.60635,1.60635,0,0,0-.29053.12684l.14433-.183c.09135.00529.31092.01576.54547.01072A1.77476,1.77476,0,0,0,1.69848,3.73046Zm.79012-.11431a5.26537,5.26537,0,0,1-.8499.02108,3.52333,3.52333,0,0,1,.91442-.20464c.16483-.01084.49407-.02274.72643-.0304A4.80491,4.80491,0,0,1,2.4886,3.61614Z"></path></g></svg>