<svg height='300px' width='300px'  fill="#8a9b91" xmlns="http://www.w3.org/2000/svg" xmlns:xlink="http://www.w3.org/1999/xlink" version="1.1" x="0px" y="0px" viewBox="0 0 100.542 100.917" enable-background="new 0 0 100.542 100.917" xml:space="preserve"><path d="M25.301,22.646L11.465,50.314c0,7.641,6.195,13.836,13.836,13.836c7.643,0,13.836-6.195,13.836-13.836L25.301,22.646z   M25.303,62.173c-6.412,0-11.611-5.197-11.611-11.609h23.219C36.911,56.976,31.712,62.173,25.303,62.173z"></path><path d="M74.094,37.1L60.259,64.768c0,7.642,6.193,13.837,13.835,13.837c7.645,0,13.837-6.195,13.837-13.837L74.094,37.1z   M74.098,76.628c-6.414,0-11.611-5.199-11.611-11.611h23.22C85.707,71.429,80.505,76.628,74.098,76.628z"></path><g><path d="M55.378,28.087c0.344,1.092,0.377,2.295,0.026,3.475c-0.35,1.179-1.032,2.169-1.915,2.897l20.604,2.638L55.378,28.087z"></path><path d="M43.992,28.179c0.349-1.179,1.033-2.169,1.916-2.897l-20.606-2.638l18.718,9.01C43.676,30.562,43.642,29.36,43.992,28.179z   "></path></g><path d="M48.527,33.824c2.185,0.646,4.479-0.598,5.125-2.783c0.646-2.182-0.599-4.475-2.783-5.125  c-2.183-0.646-4.478,0.599-5.125,2.783C45.098,30.885,46.343,33.178,48.527,33.824"></path></svg>